<svg id="Layer_1" data-name="Layer 1" xmlns="http://www.w3.org/2000/svg" viewBox="0 0 130.08 112.37"><defs><style>.cls-1,.cls-3{fill:#fff;}.cls-1{opacity:0.1;}.cls-2{fill:#a80b0c;}</style></defs><title>car01</title><path class="cls-1" d="M126,79.77a55.79,55.79,0,0,0-7.55-22.71L111.89,41l-6.5-14.27,10,.57h.2l.21,0h0a1.32,1.32,0,0,0,.87-.46c.55-.65.52-1.87-.09-3.61s-2.42-2.94-5.17-3.25a14,14,0,0,0-1.57-.08h-.71a10.85,10.85,0,0,0-2.53.35c-1.06.37-1,3.25-.88,4.34h-.11v0l-1.31-.06L100.1,15.1h0l-.07-.16a4.06,4.06,0,0,0-1.39-1.51l-.08,0a1.42,1.42,0,0,0-.18-.08v-.1l-.2,0s-.75-.1-2.06-.23a6.15,6.15,0,0,0-4.34-3.68c-.15,0-7.6-1.32-25.72-1.5C47.82,8,40.39,9.27,40.32,9.28A6.15,6.15,0,0,0,36,13c-1.31.13-2,.22-2.07.23h0l-.18,0v.1l-.11,0-.26.12-.1.08A4.55,4.55,0,0,0,32,15l-.34.75-1.15,2.52-2.84,6.22-.32,0-1,.07H26.3c.08-1.09.18-4-.88-4.34a10.74,10.74,0,0,0-2.52-.35,16,16,0,0,0-2.28.06c-2.75.31-4.54,1.43-5.18,3.25s-.63,3-.09,3.61a1.14,1.14,0,0,0,.4.31l.05,0a1.38,1.38,0,0,0,.36.12h0l.13,0h.31l10-.56h.13L20.18,41,13.63,57h0A56,56,0,0,0,6.07,79.77C5,92.28,7.76,109,7.8,109.2s3.28,8.83,12.37,10.11l3.06.57h0l.13,0,1.23-1.1,15.37.51,25.09.78v.06l1,0,.72,0h0l25.33-.83,15.38-.51,1.13,1h0l.08.07,3.17-.59c9.1-1.28,12.35-10,12.39-10.15S127.08,92.28,126,79.77Z" transform="translate(-1 -7.78)"/><rect class="cls-2" x="104.85" y="60.5" width="5.86" height="29.48"/><path class="cls-2" d="M124.44,60,110,60.15l-1.41,0c.16,0,.69.09,1.27,1v0c0,.07.09.16.14.24l0,.08h0c1.8,3.09,3.17,11.41,3.3,21.29.16,12.52-1.75,22.7-4.25,22.73,0,0,10,.75,17.17-.13,2.87-2.16,4.94-11.45,4.8-22.56C130.91,70.16,127.94,59.92,124.44,60Z" transform="translate(-1 -7.78)"/><path class="cls-2" d="M110.05,61.5a.56.56,0,0,0,0-.08,3,3,0,0,0-.15-.26c-.58-.9-1.11-1-1.27-1h-.06a1,1,0,0,0-.51.16c-2.24,1.31-3.88,10.92-3.73,22.57.15,12.53,2.31,22.66,4.82,22.62s4.41-10.21,4.25-22.73C113.22,72.91,111.85,64.59,110.05,61.5Zm-1.42,35.17c-1.09,0-2.06-6.16-2.16-13.8S107.19,69,108.28,69s2.07,6.16,2.16,13.79S109.73,96.66,108.63,96.67Z" transform="translate(-1 -7.78)"/><rect class="cls-2" x="20.36" y="68.28" width="5.86" height="29.48" transform="translate(45.59 158.26) rotate(-180)"/><path class="cls-2" d="M7.64,60l14.44.19,1.42,0c-.16,0-.7.09-1.27,1l0,0-.14.24s0,0,0,.08h0c-1.8,3.09-3.17,11.41-3.29,21.29-.16,12.52,1.74,22.7,4.25,22.73a107.65,107.65,0,0,1-17.18-.13C2.93,103.23.86,93.94,1,82.83,1.17,70.16,4.13,59.92,7.64,60Z" transform="translate(-1 -7.78)"/><path class="cls-2" d="M18.73,82.79c-.16,12.52,1.74,22.7,4.25,22.73S27.64,95.43,27.8,82.9c.15-11.65-1.49-21.26-3.74-22.57a1,1,0,0,0-.51-.16H23.5c-.16,0-.7.09-1.27,1l-.16.26L22,61.5C20.22,64.59,18.85,72.91,18.73,82.79Zm2.9,0C21.73,75.19,22.7,69,23.79,69s1.91,6.21,1.81,13.84-1.06,13.81-2.16,13.8S21.54,90.46,21.63,82.82Z" transform="translate(-1 -7.78)"/><rect class="cls-2" x="35.78" y="14.18" width="3.44" height="17.19"/><path class="cls-2" d="M29.07,17.28l8.48.08h.83c-.09,0-.41.05-.74.58h0s-.05.1-.08.14l0,0h0c-1.05,1.82-1.84,6.71-1.9,12.51C35.55,38,36.69,44,38.16,44a64,64,0,0,1-10.09,0c-1.69-1.26-2.92-6.71-2.85-13.23C25.29,23.27,27,17.26,29.07,17.28Z" transform="translate(-1 -7.78)"/><path class="cls-2" d="M35.62,30.66C35.55,38,36.69,44,38.16,44S40.88,38.06,41,30.71C41,23.87,40,18.22,38.71,17.46a.58.58,0,0,0-.3-.09h0c-.09,0-.41.05-.74.58l-.09.15,0,0C36.47,20,35.68,24.86,35.62,30.66Zm1.71,0c0-4.48.6-8.11,1.24-8.1s1.13,3.64,1.09,8.13-.6,8.11-1.24,8.1S37.29,35.16,37.33,30.67Z" transform="translate(-1 -7.78)"/><rect class="cls-2" x="90.86" y="14.18" width="3.44" height="17.19"/><path class="cls-2" d="M103,17.28l-8.48.08h-.83c.1,0,.41.05.75.58h0a1,1,0,0,1,.08.14l0,0h0c1.06,1.82,1.85,6.71,1.9,12.51C96.52,38,95.39,44,93.91,44A64,64,0,0,0,104,44c1.69-1.26,2.92-6.71,2.86-13.23C106.79,23.27,105.06,17.26,103,17.28Z" transform="translate(-1 -7.78)"/><path class="cls-2" d="M94.55,18.15l0,0L94.44,18c-.34-.53-.65-.58-.75-.58h0a.58.58,0,0,0-.3.09c-1.32.76-2.3,6.41-2.24,13.25C91.19,38.06,92.44,44,93.91,44s2.61-6,2.54-13.34C96.4,24.86,95.61,20,94.55,18.15ZM93.66,38.8c-.65,0-1.2-3.62-1.25-8.1s.45-8.12,1.09-8.13,1.2,3.62,1.25,8.1S94.3,38.79,93.66,38.8Z" transform="translate(-1 -7.78)"/><path class="cls-3" d="M126,79.77a55.79,55.79,0,0,0-7.55-22.71L111.89,41l-6.5-14.27,10,.57h.2l.21,0h0a1.32,1.32,0,0,0,.87-.46c.55-.65.52-1.87-.09-3.61s-2.42-2.94-5.17-3.25a14,14,0,0,0-1.57-.08h-.71a10.85,10.85,0,0,0-2.53.35c-1.06.37-1,3.25-.88,4.34h-.11v0l-1.31-.06L100.1,15.1h0l-.07-.16a4.06,4.06,0,0,0-1.39-1.51l-.08,0a1.42,1.42,0,0,0-.18-.08v-.1l-.2,0s-.75-.1-2.06-.23a6.15,6.15,0,0,0-4.34-3.68c-.15,0-7.6-1.32-25.72-1.5C47.82,8,40.39,9.27,40.32,9.28A6.15,6.15,0,0,0,36,13c-1.31.13-2,.22-2.07.23h0l-.18,0v.1l-.11,0-.26.12-.1.08A4.55,4.55,0,0,0,32,15l-.34.75-1.15,2.52-2.84,6.22-.32,0-1,.07H26.3c.08-1.09.18-4-.88-4.34a10.74,10.74,0,0,0-2.52-.35,16,16,0,0,0-2.28.06c-2.75.31-4.54,1.43-5.18,3.25s-.63,3-.09,3.61a1.14,1.14,0,0,0,.4.31l.05,0a1.38,1.38,0,0,0,.36.12h0l.13,0h.31l10-.56h.13L20.18,41,13.63,57h0A56,56,0,0,0,6.07,79.77C5,92.28,7.76,109,7.8,109.2s3.28,8.83,12.37,10.11l3.06.57h0l.13,0,1.23-1.1,15.37.51,25.09.78v.06l1,0,.72,0h0l25.33-.83,15.38-.51,1.13,1h0l.08.07,3.17-.59c9.1-1.28,12.35-10,12.39-10.15S127.08,92.28,126,79.77ZM106,25.08h0l.31,0,0-.3c-.14-1.53-.07-3.9.52-4.1a12.07,12.07,0,0,1,3-.35,12.9,12.9,0,0,1,1.5.08c1.78.2,4,.86,4.76,2.92s.47,2.76.18,3.11a.9.9,0,0,1-.71.31h-.1l-10.38-.58-.12-.27-.42-.93Zm-5.79-7.86v-.29a1.69,1.69,0,0,1,0-.23l.78,1.69,0,.18c0,.15.07.31.11.47a1.33,1.33,0,0,0,0,.19c0,.11.05.21.08.32s0,.16.07.25,0,.19.08.28,0,.19.08.28l.09.29.09.29.09.3c0,.11.07.22.11.33l.09.28.12.37.09.26.12.35.11.3c0,.13.08.25.13.38s.06.18.1.28l.15.42.09.24.15.41c0,.09.06.18.1.27l.14.39.11.29.15.4.11.27c0,.13.09.26.14.38l.12.3c0,.12.09.24.13.35s.09.22.13.32.09.23.13.35l.12.3.14.35.12.31.12.29.13.33.1.25c.06.14.11.28.17.41l0,.08.21.52,0,0c.89,2.18,1.57,3.76,1.64,3.93a.57.57,0,0,1,0,.14c.12.4.24.8.33,1.18a2.44,2.44,0,0,1,.06.26q.14.51.24,1l0,.2c.07.34.13.68.18,1,0,.12,0,.23,0,.35,0,.27.07.55.1.81l0,.37.06.73v.26c0,.26,0,.53,0,.78,0,0,0,.09,0,.14,0,.29,0,.57,0,.84v.08c0,.28,0,.56-.06.83,0,0,0,.11,0,.16,0,.23,0,.46-.08.68,0,.05,0,.09,0,.13-.11.76-.25,1.43-.39,2a2.5,2.5,0,0,0-.07.26,13.6,13.6,0,0,1-.54,1.57c-.22-.78-.44-1.53-.65-2.28-.06-.22-.13-.44-.19-.67q-.21-.77-.42-1.5l-.21-.76c-.13-.46-.25-.91-.37-1.35-.07-.24-.13-.48-.2-.72l-.36-1.34c0-.2-.11-.4-.16-.59-.14-.54-.27-1-.41-1.56,0-.1,0-.19-.07-.29-.16-.59-.3-1.17-.45-1.74,0-.15-.07-.29-.1-.43-.11-.41-.21-.82-.31-1.22,0-.18-.08-.36-.13-.54-.08-.35-.17-.69-.25-1l-.12-.53c-.08-.33-.16-.66-.23-1,0-.16-.07-.32-.11-.47-.08-.37-.16-.72-.24-1.07l-.06-.28c-.1-.44-.19-.87-.28-1.28a2,2,0,0,0-.05-.24c-.06-.32-.13-.64-.19-.94,0-.13,0-.26-.08-.39s-.1-.49-.14-.73,0-.26-.08-.39l-.12-.68-.06-.33c0-.24-.09-.48-.13-.7a1.87,1.87,0,0,0,0-.25c-.05-.3-.1-.59-.14-.87l0-.1c0-.25-.07-.48-.1-.71a2,2,0,0,0,0-.24l-.06-.5c0-.08,0-.17,0-.25s0-.3,0-.44l0-.23c0-.14,0-.28,0-.42s0-.12,0-.18,0-.35,0-.51v0l0-.49c0-.05,0-.1,0-.15a2.72,2.72,0,0,1,0-.28,1,1,0,0,1,0-.17c0-.08,0-.16,0-.23v-.48ZM40.41,9.77c.07,0,7.46-1.31,25.63-1.49,18.17.18,25.56,1.48,25.64,1.49h0A5.51,5.51,0,0,1,95.5,12.9c-1.37-.13-3.24-.29-5.56-.44-5.62-.36-13.87-.68-23.9-.4-2.41-.06-4.72-.1-6.91-.1-10.68,0-18.65.57-22.55.94A5.55,5.55,0,0,1,40.41,9.77Zm8.12,2.87h.06l2.26-.08h.4l1.9,0,.83,0h1.16l1.69,0h3.7l2.36,0h.37l2.77.06h.17l2.69-.06h.24l2.75,0H72a227.88,227.88,0,0,1,25.23,1.12l-.11.12-.09.1-.11.15a.41.41,0,0,1,0,.09,1,1,0,0,0-.08.14l0,.06a1.51,1.51,0,0,1-.08.17.38.38,0,0,0,0,.1l2.49,38.18A7,7,0,0,1,97.05,58a8.59,8.59,0,0,1-2,1.41l-.08,0h0a17.55,17.55,0,0,1-7.44,1.5H44.56c-.06,0-6.23.22-9.55-3a7,7,0,0,1-2.11-5.25l2.49-38.2a.44.44,0,0,0,0-.1l0-.07,0-.07-.05-.11-.06-.1-.08-.13L35,13.81a.71.71,0,0,0-.12-.13l-.08-.1C36.67,13.38,41.49,12.9,48.53,12.64ZM29.82,22.48c0-.09.07-.19.1-.28S30,22,30,21.86s.07-.19.1-.29.07-.22.11-.33a2.58,2.58,0,0,1,.08-.26c0-.11.07-.22.1-.33l.09-.3a2,2,0,0,1,.08-.26c0-.11.06-.22.08-.32a1.87,1.87,0,0,0,.07-.22c0-.11.05-.21.08-.31a1.17,1.17,0,0,1,.05-.2c0-.16.08-.32.11-.47l.39-.9.43-.94v.08a1.85,1.85,0,0,1,0,.24c0,.05,0,.1,0,.16v.34c0,.05,0,.1,0,.16v.22a1,1,0,0,0,0,.17c0,.09,0,.19,0,.28a.81.81,0,0,0,0,.16c0,.31-.05.65-.09,1,0,.06,0,.11,0,.17s0,.29-.05.44a1.49,1.49,0,0,0,0,.21l-.06.46,0,.23c0,.17-.05.35-.07.53l0,.22c0,.24-.08.5-.12.76v0q-.07.44-.15.9l0,.17c0,.25-.09.51-.13.77l-.06.29c0,.24-.09.49-.13.74s-.05.22-.07.33c-.05.27-.1.54-.16.81l-.06.32c-.07.33-.14.68-.21,1l0,.15c-.09.42-.19.86-.29,1.31l0,.15c-.09.39-.18.8-.27,1.21l-.09.39c-.08.34-.16.69-.25,1l-.12.5c-.08.35-.16.7-.25,1.07,0,.16-.08.33-.13.5-.1.42-.2.85-.31,1.28l-.09.37c-.15.57-.3,1.17-.46,1.77l0,.12c-.14.56-.29,1.13-.45,1.72l-.15.55c-.12.46-.24.92-.37,1.39-.06.23-.13.46-.19.69-.12.45-.24.9-.37,1.36l-.21.76c-.14.49-.28,1-.42,1.49-.07.23-.13.46-.2.69-.21.74-.42,1.5-.65,2.27-.68-1.63-2.24-6.58,0-13.8,0-.05.17-.38.4-.92v0l.3-.7,0,0,.15-.36,0-.09c.06-.13.11-.26.17-.4l0,0,.17-.41.06-.16c.06-.13.11-.27.17-.4l0-.08c.06-.16.13-.31.19-.47l.06-.14.17-.41.09-.23.15-.38.1-.24.15-.38c0-.08.07-.17.1-.26l.16-.39c0-.08.06-.16.1-.25l.15-.4.11-.26.15-.41c0-.09.07-.18.11-.28l.15-.38.12-.31c0-.12.09-.24.13-.37l.12-.31.14-.36c0-.1.07-.2.11-.3s.09-.26.14-.38.07-.22.11-.33l.12-.33c.05-.12.09-.24.13-.36l.11-.3c0-.11.07-.21.1-.31S29.79,22.6,29.82,22.48ZM16.54,26.76h-.09a.9.9,0,0,1-.7-.31c-.29-.35-.49-1.17.18-3.11s3-2.72,4.76-2.92h0c.46-.05.92-.07,1.37-.08l.75,0H23l.42,0,.21,0,.25,0a6.62,6.62,0,0,1,1.35.25c.59.2.66,2.57.52,4.1,0,0,0,0,0,0l0,.26L27.46,25l-.41.93-.13.27ZM14.07,57.27l0,0,6.56-16.08,6.86-15h0l0-.07L28,25h0l1.57-3.44c-.2.62-.42,1.27-.66,1.93l0,.1c-.12.34-.25.68-.38,1l0,.12-.79,2.11,0,.13-.39,1-.07.19c-.13.31-.25.62-.37.92l-.06.15c-.1.25-.2.5-.29.74l-.13.32-.27.64-.2.51,0,.07c-.81,2-1.39,3.31-1.41,3.35v0c-2.8,9.11.21,14.57.34,14.8a.22.22,0,0,0,.1.09h0l.08,0h0a.25.25,0,0,0,.21-.18L26,47.11l.27-1c.13-.47.26-.94.39-1.39s.19-.68.28-1,.23-.81.33-1.2.19-.68.28-1l.3-1.1c.08-.33.17-.65.25-1l.27-1c.09-.32.17-.64.25-1l.24-.94c.07-.3.15-.6.22-.9s.15-.6.22-.89.14-.57.21-.84.14-.57.2-.84.13-.54.19-.81l.18-.78c.06-.25.12-.5.17-.75s.12-.49.17-.73.1-.48.15-.71.1-.47.15-.69.09-.43.14-.65.09-.44.13-.66.08-.4.12-.59.09-.42.12-.62.08-.38.11-.56.07-.38.11-.57l.09-.51.09-.55c0-.15.05-.3.08-.45s.06-.35.08-.51.05-.29.07-.42.05-.32.07-.48,0-.25.05-.38L32,21.2c0-.11,0-.23.05-.34s0-.27.05-.41l0-.3c0-.13,0-.26,0-.38l0-.27,0-.35a1.94,1.94,0,0,1,0-.24c0-.11,0-.21,0-.32s0-.14,0-.2,0-.2,0-.3v-.17a2.53,2.53,0,0,0,0-.27v-.83a1.55,1.55,0,0,1,0-.21v-.06a1.5,1.5,0,0,0,0-.22h0a2.43,2.43,0,0,0,0-.35h0a.69.69,0,0,1,0-.13l.29-.64c.69-1.11,1.18-1.4,1.48-1.44.53,0,.83.6.9.78L32.4,52.69a7.47,7.47,0,0,0,2.27,5.63,6.64,6.64,0,0,0,.64.55l.22.16.46.32.29.17c.14.09.29.17.44.25l.3.15.44.21.32.13.45.17.31.12.49.15.27.08L40,61l.39.08.32.06.42.07.26,0,.42.05.2,0,.43,0h.12l.44,0h0c.89,0,1.49,0,1.56,0h42.9c.27,0,6.44.23,9.92-3.1a7.52,7.52,0,0,0,2.27-5.65L97.17,14.54l0-.1c.12-.25.42-.73.87-.68.29,0,.79.32,1.47,1.42l.31.67a4,4,0,0,0-.08.47v0c0,.06,0,.13,0,.2v.06c0,.07,0,.14,0,.21v.1a1.55,1.55,0,0,0,0,.22v.36a.76.76,0,0,0,0,.15v.27c0,.06,0,.12,0,.18s0,.19,0,.28,0,.15,0,.22,0,.21,0,.31,0,.16,0,.24l0,.35,0,.26c0,.13,0,.26,0,.39l0,.3c0,.14,0,.28,0,.42s0,.21,0,.32,0,.31.07.47,0,.23.05.35,0,.33.07.5l.06.39.09.55c0,.14,0,.28.07.42s.07.39.1.58l.09.47c0,.2.07.42.11.63s.06.33.1.5.08.45.13.68.07.35.11.53l.15.74.12.55c.05.27.11.54.17.81s.08.39.13.59.13.57.19.87.1.4.14.62.15.61.22.92.1.44.16.66.15.66.23,1,.12.46.17.7.18.7.27,1.06l.18.72c.09.38.19.76.29,1.15s.13.49.2.75.21.81.32,1.23c.07.26.13.51.2.78.12.42.24.87.36,1.31.07.27.14.53.22.81.12.46.26.95.39,1.43.08.27.15.53.22.8.16.56.32,1.14.49,1.73.06.2.11.4.17.61.23.81.47,1.63.72,2.48a.25.25,0,0,0,.21.18h0l.08,0h0a.28.28,0,0,0,.1-.09c.12-.23,3.14-5.69.34-14.8v0l0-.06-.18-.41-.09-.21-.09-.22a3.35,3.35,0,0,0-.15-.35l-.08-.2-.22-.52-.09-.22c-.07-.16-.14-.32-.2-.49l-.12-.29c-.09-.2-.17-.41-.26-.63A2.29,2.29,0,0,1,106,31c-.1-.26-.21-.52-.32-.78l-.09-.23c-.1-.25-.2-.51-.31-.77l-.06-.16-.36-.89-.09-.24-.36-.93a1.8,1.8,0,0,1-.08-.21l-.35-.9,0-.13c-.13-.32-.25-.64-.37-1a2,2,0,0,0-.08-.22c-.12-.32-.23-.64-.34-.95,0-.07-.05-.13-.07-.19-.11-.3-.21-.6-.31-.89l0-.11-.3-.9,0-.12,2.15,4.72.18.42,0,0,6.67,14.62L118,57.22c0,.08.06.31.11.68h0c0,.08,0,.18,0,.28v0c0,.09,0,.2,0,.31v0a3,3,0,0,1,0,.33V59c0,.11,0,.23,0,.35v.09c0,.12,0,.25,0,.38v.1l0,.4v.1l0,.43V61c0,.15,0,.3,0,.45v.12c0,.15,0,.31,0,.47v.13c0,.16,0,.32,0,.48v.14c0,.16,0,.33,0,.49v.16c0,.16,0,.33,0,.49a.81.81,0,0,1,0,.16c0,.17,0,.34,0,.5s0,.12,0,.18l0,.5c0,.06,0,.12,0,.18s0,.34,0,.5a1.11,1.11,0,0,1,0,.19,4,4,0,0,1-.06.5,1.36,1.36,0,0,1,0,.2c0,.16,0,.33-.08.49l0,.21L118,68a1.89,1.89,0,0,1,0,.23c0,.15-.06.3-.1.45a1.83,1.83,0,0,1-.06.25c0,.14-.07.29-.11.43s0,.17-.07.25-.08.29-.13.43-.06.17-.08.25-.1.27-.14.4-.08.18-.11.27l-.15.37c0,.1-.09.19-.13.29l-.16.34-.16.29-.16.31-.2.31a2.26,2.26,0,0,1-.16.26l-.25.36-.15.19c-.13.18-.28.35-.43.52A8.06,8.06,0,0,1,114,75.23L97.29,80.76a.24.24,0,0,0-.14.12l-.23.4a9.64,9.64,0,0,1-1.13,1.52h0a2.65,2.65,0,0,1-1.32.88l-.26,0-4.42.23h-.07L89,84l-.25,0L88,84h-.56l-.92,0h-.1c-6.6.34-15.5.78-19.7.93h0l-.64,0-.67,0h0c-4.2-.15-13.08-.59-19.67-.93l-.58,0H45l-.92,0h-.11l-6.34-.33a2.73,2.73,0,0,1-1.34-.89,10.74,10.74,0,0,1-1.35-1.92.24.24,0,0,0-.14-.12L18,75.23a8.7,8.7,0,0,1-1.15-1.06,9.67,9.67,0,0,1-.83-1.08C12.42,67.63,13.92,58.18,14.07,57.27ZM38.88,89.65l-.63-.06h-.09a.21.21,0,0,0-.13,0l-2.47-.25-2.27-.24-3.6-.4-2.09-.25-1.94-.24L17.75,87c-3.55-.61-4.7-1-5-1.26-2.13-1.53-2.63-9.31-2-10.53.46-.9,3.88-.86,5.94-.63h0l.33.32.21.2a7.17,7.17,0,0,0,.61.51l.07,0L34.52,81.2A8,8,0,0,0,35,82v0c.11.16.23.34.37.52l0,0c.13.17.28.35.43.51l0,0Zm-2.11-5.77L37,84l.13.07a1.82,1.82,0,0,0,.4.11c.17,0,14,.75,22.88,1.16l.61,0h0l4.14.17a.23.23,0,0,0,.14,0h0l.66,0,.67,0,.13,0h.05c7.25-.26,27.43-1.35,27.64-1.36h0a2,2,0,0,0,.38-.11L95,84l.25-.13-2.74,6-3.71,8.06s-.06.17-.49.38a11.81,11.81,0,0,1-4.06.76h0l-.46,0h-.12l-.53,0h-.08c-2.61.12-7.54.3-12.35.45h-.19l-3.77.12h0l-.71,0-8-.26-.58,0h-.15c-3.38-.12-6.47-.23-8.35-.32h-.09l-.53,0h-.11l-.49,0c-4.17-.28-4.54-1.11-4.55-1.11a.29.29,0,0,0,0-.09l-5-10.75Zm-18.9,3.68,7.72,1.11,1.95.24,2.1.24,3.6.41,4.71.5h0a.32.32,0,0,0,.09,0h0a.37.37,0,0,0,.21,0l.86.09L42.74,98c0,.13.13.33.48.55.57.37,1.83.78,4.52,1l.51,0h.06l.59,0h0c2.4.12,7.09.29,14,.51l1.12,0h.29l.8,0a.25.25,0,0,0,.15,0h0l.72,0,.73,0a.19.19,0,0,0,.13,0c8.84-.27,14.5-.48,16.86-.61h.07l.5,0c4.32-.3,4.94-1.17,5-1.52l3.61-7.85.85-.09a.38.38,0,0,0,.21,0l.1,0h0l4.72-.5,3.59-.41,2.11-.24,1.94-.24,7.72-1.11c2.92,8.07-2.41,12-3,12.33-23.16,5.38-40.44,4.93-45.22,4.67-4.74.26-22,.71-45.18-4.67C20.34,99.55,15,95.56,17.87,87.56Zm88.53.61-1.94.24-2.1.25-3.6.4-2.27.24L94,89.55a.24.24,0,0,0-.13,0,.17.17,0,0,0-.1,0l-.63.06,3-6.54,0,0c.15-.17.3-.34.44-.52l0,0c.14-.18.27-.35.38-.52v0a5.12,5.12,0,0,0,.28-.44l0,0,.17-.3,16.67-5.51.07,0a7.28,7.28,0,0,0,.62-.51l.21-.2.32-.32h0c2-.23,5.48-.27,5.93.63.61,1.22.11,9-2,10.53-.34.24-1.49.66-5,1.26ZM123.78,109c0,.09-3.18,8.55-12,9.79l-2.92.54-1.19-1.06h-.12l-15.49.51-25.32.79h0l-.14,0H65.4a.17.17,0,0,0-.1,0l-24.81-.77-.48,0-15.5-.51h-.1l-.06,0h0l-1.12,1-2.93-.55c-8.79-1.23-11.95-9.7-12-9.74S5.51,92.26,6.58,79.81A55.68,55.68,0,0,1,13.4,58.42c0,.17,0,.35-.07.54v.11c0,.21,0,.44-.06.68v0c0,.23,0,.48-.05.73,0,0,0,.09,0,.14,0,.26,0,.53,0,.81,0,0,0,.07,0,.11,0,.27,0,.54,0,.82v1a.81.81,0,0,0,0,.16c0,.64,0,1.31.1,2,0,.06,0,.12,0,.18,0,.34.07.67.11,1,0,0,0,.05,0,.08q.06.48.15,1l0,.16c.06.34.14.67.22,1,0,0,0,.1,0,.16.08.31.17.62.26.93l0,.09c.1.32.22.64.34.95,0,.07.05.13.08.19a12.2,12.2,0,0,0,.92,1.8l.1.17c.18.27.37.54.57.8l0,0-.76,0h-.08L15,74H13.38l-.52,0h0l-.47,0-.12,0-.33,0-.15,0-.28.07-.15,0-.24.08-.13.06-.21.1-.11.07-.17.14-.08.06a.81.81,0,0,0-.17.24c-.72,1.44-.19,9.46,2.18,11.15.54.39,2.18.82,5,1.31-3.07,8.63,3.14,12.81,3.2,12.85l.08,0c23.24,5.4,40.6,4.95,45.34,4.69,1.16.06,3.07.14,5.62.14a178.69,178.69,0,0,0,39.76-4.83l.08,0c.06,0,6.27-4.22,3.2-12.85a34.69,34.69,0,0,0,3.84-.84,4.12,4.12,0,0,0,1.13-.47c2.37-1.69,2.9-9.71,2.18-11.15a.69.69,0,0,0-.18-.24l-.07-.07-.17-.13-.12-.07-.2-.1-.14-.06-.23-.07-.17,0a1.4,1.4,0,0,0-.24-.06l-.19,0-.25,0-.21,0-.26,0c-.33,0-.67,0-1-.06h-1.77l-.23,0h-.12l-.35,0,0,0a8.39,8.39,0,0,0,.57-.8l.11-.17a13.26,13.26,0,0,0,.92-1.8c0-.06,0-.12.07-.19.13-.31.24-.63.35-.95,0,0,0-.06,0-.09q.15-.47.27-.93c0-.06,0-.11,0-.16.08-.33.15-.66.22-1,0,0,0-.11,0-.16.06-.32.12-.64.16-1,0,0,0,0,0-.08,0-.34.09-.67.12-1,0-.06,0-.12,0-.18.06-.67.1-1.34.11-2v-.16c0-.31,0-.62,0-.92a.41.41,0,0,0,0-.11c0-.28,0-.55,0-.82v-.11c0-.28,0-.55,0-.81a.66.66,0,0,1,0-.14c0-.25,0-.5-.06-.73v0c0-.24,0-.47-.07-.68V59c0-.2,0-.4-.07-.58h0a55.55,55.55,0,0,1,6.84,21.43C126.56,92.26,123.8,108.91,123.78,109Z" transform="translate(-1 -7.78)"/><path class="cls-3" d="M20.24,71.71c.52,1.15,5.14,2.83,27.62,2.83,5.09,0,11.1-.08,18.17-.28,7.07.2,13.08.28,18.16.28,22.48,0,27.11-1.68,27.62-2.83a.58.58,0,0,0,0-.48c1.66-3.59-4.19-18.83-4.44-19.49a.25.25,0,0,0-.33-.14.25.25,0,0,0-.14.32c.06.16,6.16,16.06,4.41,19.19a.26.26,0,0,0,0,.29s0,0,0,.12c-.42.81-4.95,3.34-44.86,2.25l-.06,0h-.81l-.05,0c-39.92,1.1-44.44-1.44-44.86-2.25,0-.07,0-.11,0-.11a.26.26,0,0,0,0-.3C19,68,25.07,52.08,25.13,51.92a.25.25,0,0,0-.46-.18c-.25.66-6.1,15.9-4.45,19.49A.62.62,0,0,0,20.24,71.71Z" transform="translate(-1 -7.78)"/></svg>